<svg xmlns="http://www.w3.org/2000/svg" version="1" width="370" height="370" class="segno"><g transform="scale(10)"><path class="qrline" stroke="#a85830" d="M2 2.5h7m19 0h7m-33 1h1m5 0h1m19 0h1m5 0h1m-33 1h1m1 0h3m1 0h1m19 0h1m1 0h3m1 0h1m-33 1h1m1 0h3m1 0h1m19 0h1m1 0h3m1 0h1m-33 1h1m1 0h3m1 0h1m19 0h1m1 0h3m1 0h1m-33 1h1m5 0h1m19 0h1m5 0h1m-33 1h7m19 0h7m-33 20h7m-7 1h1m5 0h1m-7 1h1m1 0h3m1 0h1m-7 1h1m1 0h3m1 0h1m-7 1h1m1 0h3m1 0h1m-7 1h1m5 0h1m-7 1h7"/><path class="qrline" stroke="#974f2b" d="M10 2.5h3m1 0h1m4 0h2m4 0h2m-17 1h1m1 0h4m1 0h1m3 0h1m1 0h2m1 0h1m-17 1h2m1 0h1m3 0h1m4 0h2m1 0h2m-16 1h2m8 0h2m1 0h3m-16 1h1m2 0h1m2 0h1m4 0h2m-14 1h1m2 0h1m2 0h1m1 0h1m2 0h2m2 0h2m-17 1h1m1 0h1m1 0h1m1 0h1m1 0h1m1 0h1m1 0h1m1 0h1m1 0h1m-17 1h3m2 0h2m4 0h1m1 0h3m-22 1h3m1 0h1m1 0h3m3 0h4m1 0h1m2 0h2m1 0h3m2 0h3m-33 1h1m1 0h1m1 0h2m4 0h1m1 0h10m3 0h2m5 0h1m-32 1h1m3 0h3m1 0h2m1 0h1m3 0h3m2 0h1m3 0h3m1 0h1m1 0h1m-28 1h2m1 0h1m4 0h6m2 0h4m6 0h1m1 0h1m-33 1h1m2 0h4m1 0h2m4 0h1m3 0h1m1 0h2m2 0h2m1 0h1m3 0h1m-32 1h1m1 0h2m1 0h1m5 0h1m1 0h4m1 0h1m1 0h1m1 0h2m1 0h3m4 0h1m-33 1h3m2 0h2m1 0h3m1 0h1m2 0h2m3 0h1m1 0h1m1 0h1m2 0h1m1 0h1m1 0h1m-32 1h3m2 0h1m1 0h1m2 0h1m4 0h2m2 0h1m1 0h3m2 0h2m1 0h2m-31 1h1m1 0h8m1 0h1m2 0h2m1 0h1m1 0h1m3 0h1m4 0h1m1 0h3m-33 1h1m1 0h2m1 0h1m1 0h1m1 0h1m1 0h2m4 0h1m1 0h2m2 0h2m1 0h1m-24 1h1m2 0h1m6 0h2m4 0h3m3 0h2m3 0h2m-31 1h2m1 0h2m1 0h2m2 0h2m4 0h1m3 0h4m1 0h2m1 0h2m1 0h1m-32 1h2m2 0h4m2 0h1m4 0h1m1 0h3m1 0h1m2 0h5m2 0h1m-33 1h2m2 0h1m3 0h4m3 0h1m2 0h1m1 0h1m3 0h1m4 0h1m2 0h1m-33 1h1m2 0h1m2 0h1m2 0h1m2 0h1m2 0h2m4 0h2m4 0h1m1 0h1m1 0h1m-32 1h1m1 0h1m4 0h2m1 0h2m3 0h2m2 0h1m1 0h1m2 0h1m2 0h4m1 0h1m-33 1h1m2 0h1m2 0h2m2 0h4m1 0h5m2 0h1m1 0h6m1 0h2m-25 1h4m1 0h1m2 0h1m3 0h1m1 0h3m3 0h2m2 0h1m-24 1h1m2 0h1m1 0h1m2 0h2m3 0h3m1 0h1m1 0h2m1 0h1m-22 1h1m4 0h3m6 0h1m3 0h5m-25 1h2m2 0h1m1 0h1m2 0h6m1 0h6m1 0h2m-25 1h6m9 0h1m1 0h1m2 0h4m-24 1h4m11 0h1m1 0h2m2 0h2m-21 1h1m1 0h3m1 0h1m1 0h5m3 0h2m2 0h1m-22 1h7m2 0h2m2 0h1m1 0h2m4 0h2"/><path class="qrline" stroke="#faf7f0" d="M0 0.5h37m-37 1h37m-37 1h2m7 0h1m3 0h1m1 0h4m2 0h4m2 0h1m7 0h2m-37 1h2m1 0h5m1 0h1m1 0h1m4 0h1m1 0h3m1 0h1m2 0h1m1 0h1m1 0h5m1 0h2m-37 1h2m1 0h1m3 0h1m1 0h1m2 0h1m1 0h3m1 0h4m2 0h1m2 0h1m1 0h1m3 0h1m1 0h2m-37 1h2m1 0h1m3 0h1m1 0h2m2 0h8m2 0h1m3 0h1m1 0h1m3 0h1m1 0h2m-37 1h2m1 0h1m3 0h1m1 0h2m1 0h2m1 0h2m1 0h4m2 0h4m1 0h1m3 0h1m1 0h2m-37 1h2m1 0h5m1 0h1m1 0h2m1 0h2m1 0h1m1 0h2m2 0h2m2 0h1m1 0h5m1 0h2m-37 1h2m7 0h1m1 0h1m1 0h1m1 0h1m1 0h1m1 0h1m1 0h1m1 0h1m1 0h1m1 0h1m7 0h2m-37 1h10m3 0h2m2 0h4m1 0h1m3 0h11m-37 1h4m3 0h1m1 0h1m3 0h3m4 0h1m1 0h2m2 0h1m3 0h2m3 0h2m-37 1h2m1 0h1m1 0h1m2 0h4m1 0h1m10 0h3m2 0h5m1 0h2m-37 1h3m1 0h3m3 0h1m2 0h1m1 0h3m3 0h2m1 0h3m3 0h1m1 0h1m1 0h3m-37 1h6m2 0h1m1 0h4m6 0h2m4 0h6m1 0h1m1 0h2m-37 1h2m1 0h2m4 0h1m2 0h4m1 0h3m1 0h1m2 0h2m2 0h1m1 0h3m1 0h3m-37 1h2m1 0h1m2 0h1m1 0h5m1 0h1m4 0h1m1 0h1m1 0h1m2 0h1m3 0h4m1 0h2m-37 1h2m3 0h2m2 0h1m3 0h1m1 0h2m2 0h3m1 0h1m1 0h1m1 0h2m1 0h1m1 0h1m1 0h3m-37 1h2m3 0h2m1 0h1m1 0h2m1 0h4m2 0h2m1 0h1m3 0h2m2 0h1m2 0h4m-37 1h2m1 0h1m8 0h1m1 0h2m2 0h1m1 0h1m1 0h3m1 0h4m1 0h1m3 0h2m-37 1h2m1 0h1m2 0h1m1 0h1m1 0h1m1 0h1m2 0h4m1 0h1m2 0h2m2 0h1m1 0h8m-37 1h5m1 0h2m1 0h6m2 0h4m3 0h3m2 0h3m2 0h3m-37 1h3m2 0h1m2 0h1m2 0h2m2 0h4m1 0h3m4 0h1m2 0h1m2 0h1m1 0h2m-37 1h3m2 0h2m4 0h2m1 0h4m1 0h1m3 0h1m1 0h2m5 0h2m1 0h2m-37 1h2m2 0h2m1 0h3m4 0h3m1 0h2m1 0h1m1 0h3m1 0h4m1 0h2m1 0h2m-37 1h2m1 0h2m1 0h2m1 0h2m1 0h2m1 0h2m2 0h4m2 0h4m1 0h1m1 0h1m1 0h3m-37 1h2m1 0h1m1 0h4m2 0h1m2 0h3m2 0h2m1 0h1m1 0h2m1 0h2m4 0h1m1 0h2m-37 1h2m1 0h2m1 0h2m2 0h2m4 0h1m5 0h2m1 0h1m6 0h1m2 0h2m-37 1h10m4 0h1m1 0h2m1 0h3m1 0h1m3 0h3m2 0h2m1 0h2m-37 1h2m7 0h2m1 0h2m1 0h1m1 0h2m2 0h3m3 0h1m1 0h1m2 0h1m1 0h3m-37 1h2m1 0h5m1 0h3m1 0h4m3 0h6m1 0h3m5 0h2m-37 1h2m1 0h1m3 0h1m1 0h1m2 0h2m1 0h1m1 0h2m6 0h1m6 0h1m2 0h2m-37 1h2m1 0h1m3 0h1m1 0h1m6 0h9m1 0h1m1 0h2m4 0h3m-37 1h2m1 0h1m3 0h1m1 0h1m4 0h11m1 0h1m2 0h2m2 0h4m-37 1h2m1 0h5m1 0h3m1 0h1m3 0h1m1 0h1m5 0h3m2 0h2m1 0h4m-37 1h2m7 0h2m7 0h2m2 0h2m1 0h1m2 0h4m2 0h3m-37 1h37m-37 1h37"/></g></svg>
